#Comment line ignore any data following # character 
#Hierarchical Translation and Rotation (.htr) file 
[Header]	
#Header keywords are followed by a single value 
FileType HTR		#Single word string
DataType HTRS		#Translation followed by rotation and scale data
FileVersion 1		#integer
NumSegments 64		#integer
NumFrames 3		#integer
DataFrameRate 30		#integer, data frame rate in this file
EulerRotationOrder ZYX
CalibrationUnits mm
RotationUnits Degrees
GlobalAxisofGravity Y
BoneLengthAxis Y
ScaleFactor 1.00
[SegmentNames&Hierarchy]
#CHILD	PARENT
Pinger_Root GLOBAL
Pelvis Pinger_Root
L_Hip Pelvis
R_Hip Pelvis
Rear_Leg01 Pelvis
Spine1 Pelvis
L_Leg01 L_Hip
L_Leg02 L_Leg01
L_Leg03 L_Leg02
L_Foot L_Leg03
L_Toe1_01 L_Foot
L_Toe2_01 L_Foot
L_Toe3_01 L_Foot
planeAlignerLeft L_Foot
L_Toe1_02 L_Toe1_01
L_Toe1_03 L_Toe1_02
L_Toe2_02 L_Toe2_01
L_Toe2_03 L_Toe2_02
L_Toe3_02 L_Toe3_01
L_Toe3_03 L_Toe3_02
planeLockWeightLeft planeAlignerLeft
R_Leg01 R_Hip
R_Leg02 R_Leg01
R_Leg03 R_Leg02
R_Foot R_Leg03
planeAlignerRight R_Foot
R_Toe1_01 R_Foot
R_Toe2_01 R_Foot
R_Toe3_01 R_Foot
planeLockWeightRight planeAlignerRight
R_Toe1_02 R_Toe1_01
R_Toe1_03 R_Toe1_02
R_Toe2_02 R_Toe2_01
R_Toe2_03 R_Toe2_02
R_Toe3_02 R_Toe3_01
R_Toe3_03 R_Toe3_02
Rear_Leg02 Rear_Leg01
Rear_Leg03 Rear_Leg02
Rear_Leg04 Rear_Leg03
Rear_Foot Rear_Leg04
planeAlignerCenter Rear_Foot
Rear_Toe1_01 Rear_Foot
Rear_Toe2_01 Rear_Foot
Rear_Toe3_01 Rear_Foot
planeLockWeightCenter planeAlignerCenter
Rear_Toe1_02 Rear_Toe1_01
Rear_Toe1_03 Rear_Toe1_02
Rear_Toe2_02 Rear_Toe2_01
Rear_Toe2_03 Rear_Toe2_02
Rear_Toe3_02 Rear_Toe3_01
Rear_Toe3_03 Rear_Toe3_02
Back_Bone Spine1
Head Spine1
Motor_Bone Back_Bone
Ping_Mechanism Back_Bone
BN_LookIK Head
bottomMouth Head
L_Mouth01 Head
L_mouthFront Head
mouthGun Head
R_Mouth01 Head
R_mouthFront Head
TopMouth Head
weapon_bone Head
[BasePosition]
#SegmentName Tx, Ty, Tz, Rx, Ry, Rz, BoneLength
Pinger_Root 0.000000 0.000000 0.000000 -90.000000 0.000000 0.000000 10.000000 
Pelvis 0.000000 0.000000 0.000000 0.000000 0.000000 0.000000 10.000000 
L_Hip 0.000000 0.000000 0.000000 0.000000 0.000000 0.000000 10.000000 
R_Hip 0.000000 0.000000 0.000000 0.000000 0.000000 0.000000 10.000000 
Rear_Leg01 0.000000 0.000000 0.000000 0.000000 0.000000 0.000000 10.000000 
Spine1 0.000000 0.000000 0.000000 0.000000 0.000000 0.000000 10.000000 
L_Leg01 0.000000 0.000000 0.000000 0.000000 0.000000 0.000000 10.000000 
L_Leg02 0.000000 0.000000 0.000000 0.000000 0.000000 0.000000 10.000000 
L_Leg03 0.000000 0.000000 0.000000 0.000000 0.000000 0.000000 10.000000 
L_Foot 0.000000 0.000000 0.000000 0.000000 0.000000 0.000000 10.000000 
L_Toe1_01 0.000000 0.000000 0.000000 0.000000 0.000000 0.000000 10.000000 
L_Toe2_01 0.000000 0.000000 0.000000 0.000000 0.000000 0.000000 10.000000 
L_Toe3_01 0.000000 0.000000 0.000000 0.000000 0.000000 0.000000 10.000000 
planeAlignerLeft 0.000000 0.000000 0.000000 0.000000 0.000000 0.000000 10.000000 
L_Toe1_02 0.000000 0.000000 0.000000 0.000000 0.000000 0.000000 10.000000 
L_Toe1_03 0.000000 0.000000 0.000000 0.000000 0.000000 0.000000 10.000000 
L_Toe2_02 0.000000 0.000000 0.000000 0.000000 0.000000 0.000000 10.000000 
L_Toe2_03 0.000000 0.000000 0.000000 0.000000 0.000000 0.000000 10.000000 
L_Toe3_02 0.000000 0.000000 0.000000 0.000000 0.000000 0.000000 10.000000 
L_Toe3_03 0.000000 0.000000 0.000000 0.000000 0.000000 0.000000 10.000000 
planeLockWeightLeft 0.000000 0.000000 0.000000 0.000000 0.000000 0.000000 10.000000 
R_Leg01 0.000000 0.000000 0.000000 0.000000 0.000000 0.000000 10.000000 
R_Leg02 0.000000 0.000000 0.000000 0.000000 0.000000 0.000000 10.000000 
R_Leg03 0.000000 0.000000 0.000000 0.000000 0.000000 0.000000 10.000000 
R_Foot 0.000000 0.000000 0.000000 0.000000 0.000000 0.000000 10.000000 
planeAlignerRight 0.000000 0.000000 0.000000 0.000000 0.000000 0.000000 10.000000 
R_Toe1_01 0.000000 0.000000 0.000000 0.000000 0.000000 0.000000 10.000000 
R_Toe2_01 0.000000 0.000000 0.000000 0.000000 0.000000 0.000000 10.000000 
R_Toe3_01 0.000000 0.000000 0.000000 0.000000 0.000000 0.000000 10.000000 
planeLockWeightRight 0.000000 0.000000 0.000000 0.000000 0.000000 0.000000 10.000000 
R_Toe1_02 0.000000 0.000000 0.000000 0.000000 0.000000 0.000000 10.000000 
R_Toe1_03 0.000000 0.000000 0.000000 0.000000 0.000000 0.000000 10.000000 
R_Toe2_02 0.000000 0.000000 0.000000 0.000000 0.000000 0.000000 10.000000 
R_Toe2_03 0.000000 0.000000 0.000000 0.000000 0.000000 0.000000 10.000000 
R_Toe3_02 0.000000 0.000000 0.000000 0.000000 0.000000 0.000000 10.000000 
R_Toe3_03 0.000000 0.000000 0.000000 0.000000 0.000000 0.000000 10.000000 
Rear_Leg02 0.000000 0.000000 0.000000 0.000000 0.000000 0.000000 10.000000 
Rear_Leg03 0.000000 0.000000 0.000000 0.000000 0.000000 0.000000 10.000000 
Rear_Leg04 0.000000 0.000000 0.000000 0.000000 0.000000 0.000000 10.000000 
Rear_Foot 0.000000 0.000000 0.000000 0.000000 0.000000 0.000000 10.000000 
planeAlignerCenter 0.000000 0.000000 0.000000 0.000000 0.000000 0.000000 10.000000 
Rear_Toe1_01 0.000000 0.000000 0.000000 0.000000 0.000000 0.000000 10.000000 
Rear_Toe2_01 0.000000 0.000000 0.000000 0.000000 0.000000 0.000000 10.000000 
Rear_Toe3_01 0.000000 0.000000 0.000000 0.000000 0.000000 0.000000 10.000000 
planeLockWeightCenter 0.000000 0.000000 0.000000 0.000000 0.000000 0.000000 10.000000 
Rear_Toe1_02 0.000000 0.000000 0.000000 0.000000 0.000000 0.000000 10.000000 
Rear_Toe1_03 0.000000 0.000000 0.000000 0.000000 0.000000 0.000000 10.000000 
Rear_Toe2_02 0.000000 0.000000 0.000000 0.000000 0.000000 0.000000 10.000000 
Rear_Toe2_03 0.000000 0.000000 0.000000 0.000000 0.000000 0.000000 10.000000 
Rear_Toe3_02 0.000000 0.000000 0.000000 0.000000 0.000000 0.000000 10.000000 
Rear_Toe3_03 0.000000 0.000000 0.000000 0.000000 0.000000 0.000000 10.000000 
Back_Bone 0.000000 0.000000 0.000000 0.000000 0.000000 0.000000 10.000000 
Head 0.000000 0.000000 0.000000 0.000000 0.000000 0.000000 10.000000 
Motor_Bone 0.000000 0.000000 0.000000 0.000000 0.000000 0.000000 10.000000 
Ping_Mechanism 0.000000 0.000000 0.000000 0.000000 0.000000 0.000000 10.000000 
BN_LookIK 0.000000 0.000000 0.000000 0.000000 0.000000 0.000000 10.000000 
bottomMouth 0.000000 0.000000 0.000000 0.000000 0.000000 0.000000 10.000000 
L_Mouth01 0.000000 0.000000 0.000000 0.000000 0.000000 0.000000 10.000000 
L_mouthFront 0.000000 0.000000 0.000000 0.000000 0.000000 0.000000 10.000000 
mouthGun 0.000000 0.000000 0.000000 0.000000 0.000000 0.000000 10.000000 
R_Mouth01 0.000000 0.000000 0.000000 0.000000 0.000000 0.000000 10.000000 
R_mouthFront 0.000000 0.000000 0.000000 0.000000 0.000000 0.000000 10.000000 
TopMouth 0.000000 0.000000 0.000000 0.000000 0.000000 0.000000 10.000000 
weapon_bone 0.000000 0.000000 0.000000 0.000000 0.000000 0.000000 10.000000 
#Beginning of Data. Separated by tabs
#Fr	Tx	Ty	Tz	Rx	Ry	Rz	SF
[Pinger_Root]
1 0.000000 0.000000 0.000000 -0.000075 -0.000000 -0.000020 0.000000
2 -129.629623 0.000000 0.000000 -0.000075 -0.000000 -0.000020 129.629623
3 -259.259247 0.000000 0.000000 -0.000075 -0.000000 -0.000020 259.259247
[Pelvis]
1 -839.576538 186.342911 5059.364258 -102.010681 -77.101311 137.769302 5131.937500
2 -842.441284 93.853859 5088.804199 -103.273270 -78.589111 139.084213 5158.918945
3 -849.722168 9.619293 5119.632324 -108.397774 -82.318985 144.358749 5189.677734
[L_Hip]
1 5.766392 125.831482 872.656799 -178.250168 -81.786369 87.376007 881.701050
2 5.766392 125.831482 872.656799 -178.250168 -81.786369 87.376007 881.701050
3 5.766392 125.831482 872.656799 -178.250168 -81.786369 87.376007 881.701050
[R_Hip]
1 5.765438 125.836372 -872.654907 -1.748770 81.786041 87.376961 881.699829
2 5.765438 125.836372 -872.654907 -1.748770 81.786041 87.376961 881.699829
3 5.765438 125.836372 -872.654907 -1.748770 81.786041 87.376961 881.699829
[Rear_Leg01]
1 -192.298416 -925.602966 -0.001907 178.705460 30.296848 -156.596558 945.367432
2 -192.298416 -925.602966 -0.001907 176.747421 27.519957 -160.221359 945.367432
3 -192.298416 -925.602966 -0.001907 176.889236 24.166235 -160.348724 945.367432
[Spine1]
1 290.604584 5.007505 0.000477 -20.740189 14.657720 14.314393 290.647736
2 290.604584 5.007505 0.000477 -20.681318 14.622005 15.896032 290.647736
3 290.604584 5.007505 0.000477 -20.541582 14.525613 19.911173 290.647736
[L_Leg01]
1 761.932007 -0.002384 -0.069261 61.468296 -0.748048 -71.033272 761.932068
2 761.932007 -0.002384 -0.069261 61.812115 -0.512457 -72.859962 761.932068
3 761.932007 -0.002384 -0.069261 62.801826 0.450572 -74.422188 761.932068
[L_Leg02]
1 1441.140503 -0.000954 -0.000715 -1.492373 0.609253 -86.389442 1441.140503
2 1441.140503 -0.000954 -0.000715 -1.479412 0.620708 -87.356621 1441.140503
3 1441.140503 -0.000954 -0.000715 -1.434234 0.668419 -89.417595 1441.140503
[L_Leg03]
1 1686.963989 -0.000715 -0.000954 0.054227 -0.013166 95.622871 1686.963989
2 1686.963989 -0.000715 -0.000954 0.054294 -0.012884 95.027412 1686.963989
3 1686.963989 -0.000715 -0.000954 0.064903 -0.015714 93.039772 1686.963989
[L_Foot]
1 3041.570068 -30.715107 11.297464 -20.243805 15.958226 77.631523 3041.746094
2 3041.570068 -30.715107 11.297464 -18.224913 15.926630 79.444557 3041.746094
3 3041.570068 -30.715107 11.297464 -16.141699 15.942886 82.054184 3041.746094
[L_Toe1_01]
1 -188.216690 -224.732346 -21.137953 89.699341 -3.378355 -165.452560 293.899567
2 -188.216690 -224.732346 -21.137953 89.715561 -3.436883 -165.435043 293.899567
3 -188.216690 -224.732346 -21.137953 89.731766 -3.495415 -165.417542 293.899567
[L_Toe2_01]
1 200.746536 -219.926590 148.838394 -77.585175 -14.470509 -44.182648 332.896027
2 200.746536 -219.926590 148.838394 -77.565857 -14.417823 -44.296860 332.896027
3 200.746536 -219.926590 148.838394 -77.546616 -14.365087 -44.410999 332.896027
[L_Toe3_01]
1 188.832520 -219.859131 -191.078659 -105.094337 14.710049 -44.951870 347.140900
2 188.832520 -219.859131 -191.078659 -105.055313 14.347095 -45.080677 347.140900
3 188.832520 -219.859131 -191.078659 -105.134552 14.542623 -45.196140 347.140900
[planeAlignerLeft]
1 -12.167511 -606.274841 27.239378 0.000000 -90.000000 -90.001900 607.008423
2 -5.444489 -607.899109 30.310669 0.000000 -90.000000 -90.001900 608.678711
3 -7.693787 -609.162720 28.399658 0.000000 -90.000000 -90.001900 609.872925
[L_Toe1_02]
1 413.761139 0.000477 0.000000 0.001412 -22.421448 0.001412 413.761139
2 413.761139 0.000477 0.000000 0.001412 -22.418085 0.001412 413.761139
3 413.761139 0.000477 0.000000 0.001412 -22.414724 0.001412 413.761139
[L_Toe1_03]
1 464.317322 0.000358 -0.000089 0.015052 81.056046 0.015052 464.317322
2 464.317322 0.000358 -0.000089 0.016613 81.898064 0.016613 464.317322
3 464.317322 0.000358 -0.000089 0.015830 81.496613 0.015830 464.317322
[L_Toe2_02]
1 342.235809 -0.000477 0.000238 0.001180 -77.741257 0.001180 342.235809
2 342.235809 -0.000477 0.000238 0.001181 -77.601677 0.001181 342.235809
3 342.235809 -0.000477 0.000238 0.001181 -77.462029 0.001181 342.235809
[L_Toe2_03]
1 420.210846 -0.000715 0.000000 -179.996613 77.155922 -179.993103 420.210846
2 420.210846 -0.000715 0.000000 -179.996063 78.414101 -179.992554 420.210846
3 420.210846 -0.000715 0.000000 -179.996109 78.324768 -179.992584 420.210846
[L_Toe3_02]
1 329.270111 0.000954 0.000000 0.001177 -81.880569 0.001177 329.270111
2 329.270111 0.000954 0.000000 0.001177 -81.864220 0.001177 329.270111
3 329.270111 0.000954 0.000000 0.001177 -81.847847 0.001177 329.270111
[L_Toe3_03]
1 439.137451 -0.001907 0.000954 -179.997986 72.516495 -179.994446 439.137451
2 439.137451 -0.001907 0.000954 -179.997787 73.377525 -179.994263 439.137451
3 439.137451 -0.001907 0.000954 -179.997818 73.282013 -179.994278 439.137451
[planeLockWeightLeft]
1 999.998718 0.098038 0.076399 -0.011826 -0.004376 0.005620 999.998779
2 999.998718 0.098035 0.076390 -0.011826 -0.004376 0.005620 999.998779
3 999.998718 0.098032 0.076381 -0.011826 -0.004376 0.005620 999.998779
[R_Leg01]
1 761.455627 -0.001907 -0.000358 95.251671 -38.604603 69.008072 761.455688
2 761.455627 -0.001907 -0.000358 94.552856 -36.078835 67.891266 761.455688
3 761.455627 -0.001907 -0.000358 92.630402 -30.349619 67.726944 761.455688
[R_Leg02]
1 1441.140625 0.000000 -0.000238 0.182715 -0.037801 -100.783569 1441.140625
2 1441.140625 0.000000 -0.000238 0.183933 -0.025130 -97.633888 1441.140625
3 1441.140625 0.000000 -0.000238 0.186093 -0.021057 -93.561165 1441.140625
[R_Leg03]
1 1686.963989 0.000954 0.001431 -0.049499 0.013082 95.962837 1686.963989
2 1686.963989 0.000954 0.001431 -0.063764 0.012365 93.359695 1686.963989
3 1686.963989 0.000954 0.001431 -0.069199 0.013088 91.403091 1686.963989
[R_Foot]
1 3041.560059 -30.531288 -11.204481 21.206039 -22.303890 59.046741 3041.734131
2 3041.560059 -30.531288 -11.204481 23.083113 -22.363976 58.641743 3041.734131
3 3041.560059 -30.531288 -11.204481 24.961325 -22.411751 58.234665 3041.734131
[planeAlignerRight]
1 -0.757446 -688.419373 0.057678 0.000000 -89.960434 -90.005180 688.419800
2 -1.307831 -695.008423 0.867310 0.000000 -89.960434 -90.005180 695.010132
3 -3.017883 -712.376404 2.996674 0.000000 -89.960434 -90.005180 712.389099
[R_Toe1_01]
1 -188.383347 -224.864899 21.052242 90.718590 1.938720 -159.553436 294.101532
2 -188.383347 -224.864899 21.052242 90.754715 1.891139 -159.002121 294.101532
3 -188.383347 -224.864899 21.052242 90.814430 1.760099 -157.520813 294.101532
[R_Toe2_01]
1 200.637817 -220.002121 -148.787384 -103.203026 11.339010 -50.098309 332.857574
2 200.637817 -220.002121 -148.787384 -103.291161 11.190358 -50.573700 332.857574
3 200.637817 -220.002121 -148.787384 -103.510773 10.808596 -51.816738 332.857574
[R_Toe3_01]
1 188.606735 -220.092957 191.126343 -72.739395 -14.065773 -51.997437 347.192566
2 188.606735 -220.092957 191.126343 -72.609528 -13.972653 -52.506744 347.192566
3 188.606735 -220.092957 191.126343 -72.269402 -13.722228 -53.831387 347.192566
[planeLockWeightRight]
1 999.999207 0.000000 0.075865 -0.011823 -0.004379 -0.000027 999.999207
2 999.999146 -0.000057 0.075885 -0.011823 -0.004379 -0.000027 999.999146
3 999.999146 -0.000114 0.075905 -0.011823 -0.004379 -0.000027 999.999146
[R_Toe1_02]
1 413.762085 0.000477 -0.000119 0.001404 -23.390312 0.001404 413.762085
2 413.762085 0.000477 -0.000119 0.001402 -23.640432 0.001402 413.762085
3 413.762085 0.000477 -0.000119 0.001400 -23.890543 0.001400 413.762085
[R_Toe1_03]
1 464.317810 0.000000 0.001088 0.010088 76.638115 0.010088 464.317810
2 464.317810 0.000000 0.001088 0.009619 75.984047 0.009619 464.317810
3 464.317810 0.000000 0.001088 0.008516 74.156609 0.008516 464.317810
[R_Toe2_02]
1 342.234741 -0.000954 0.000238 -0.002342 -75.466133 -0.002342 342.234741
2 342.234741 -0.000954 0.000238 -0.002343 -75.132355 -0.002343 342.234741
3 342.234741 -0.000954 0.000238 -0.002344 -74.798500 -0.002344 342.234741
[R_Toe2_03]
1 420.210846 0.000715 -0.000268 -179.983963 85.388924 -179.987473 420.210846
2 420.210846 0.000715 -0.000268 -179.981903 85.969009 -179.985397 420.210846
3 420.210846 0.000715 -0.000268 -179.971909 87.499702 -179.975403 420.210846
[R_Toe3_02]
1 329.270355 -0.000477 -0.000954 0.001179 -79.331924 0.001179 329.270355
2 329.270355 -0.000477 -0.000954 0.001179 -78.998703 0.001179 329.270355
3 329.270355 -0.000477 -0.000954 0.001179 -78.665375 0.001179 329.270355
[R_Toe3_03]
1 439.137939 0.000238 0.001431 -179.992584 82.804810 -179.989090 439.137939
2 439.137939 0.000238 0.001431 -179.991745 83.419449 -179.988235 439.137939
3 439.137939 0.000238 0.001431 -179.988434 85.052956 -179.984940 439.137939
[Rear_Leg02]
1 1162.777710 -0.029802 0.005960 24.476177 -20.212280 -97.630959 1162.777710
2 1162.777710 -0.029802 0.005960 26.298298 -17.239452 -102.407181 1162.777710
3 1162.777710 -0.029802 0.005960 27.868841 -12.808310 -108.867874 1162.777710
[Rear_Leg03]
1 607.192505 -0.013351 -0.073195 0.010116 -0.005815 76.141006 607.192505
2 607.192505 -0.013351 -0.073195 0.010042 -0.005945 77.608276 607.192505
3 607.192505 -0.013351 -0.073195 0.009965 -0.006074 79.075775 607.192505
[Rear_Leg04]
1 995.874512 -0.020504 -0.011921 -0.042619 -0.018664 86.857986 995.874573
2 995.874512 -0.020504 -0.011921 -0.043371 -0.016843 91.710182 995.874573
3 995.874512 -0.020504 -0.011921 -0.044272 -0.014308 98.337387 995.874573
[Rear_Foot]
1 3096.176270 -0.067472 -0.041425 -36.578712 40.139580 96.966599 3096.176270
2 3096.176270 -0.067472 -0.041425 -36.102715 41.337814 94.812050 3096.176270
3 3096.176270 -0.067472 -0.041425 -38.648254 43.907722 96.430138 3096.176270
[planeAlignerCenter]
1 -0.071869 245.112305 -761.916260 0.000009 0.000003 -179.999985 800.372681
2 0.843582 248.024902 -759.961609 0.000009 0.000003 -179.999985 799.411438
3 3.007278 255.465271 -756.950928 0.000009 0.000003 -179.999985 798.903137
[Rear_Toe1_01]
1 0.653352 83.966492 -371.173737 0.102971 39.664894 90.041512 380.553192
2 0.653352 83.966492 -371.173737 0.100181 39.662102 90.041496 380.553192
3 0.653352 83.966492 -371.173737 0.097391 39.659321 90.041504 380.553192
[Rear_Toe2_01]
1 178.200760 -294.826019 -362.060547 62.316086 84.619949 -8.356788 499.765686
2 178.200760 -294.826019 -362.060547 67.943130 84.627792 -2.712316 499.765686
3 178.200760 -294.826019 -362.060547 82.102776 84.433662 11.483625 499.765686
[Rear_Toe3_01]
1 -153.359680 -308.780914 -362.060852 -64.110832 83.958504 -175.630646 499.952881
2 -153.359680 -308.780914 -362.060852 -69.152290 83.930946 179.307678 499.952881
3 -153.359680 -308.780914 -362.060852 -81.616508 83.673988 166.802063 499.952881
[planeLockWeightCenter]
1 0.000229 0.000000 0.076370 -0.011814 -0.004373 -0.000015 0.076371
2 0.000227 0.000025 0.076370 -0.011814 -0.004373 -0.000015 0.076371
3 0.000226 0.000051 0.076370 -0.011814 -0.004373 -0.000015 0.076371
[Rear_Toe1_02]
1 379.707825 0.194073 0.000477 -0.000767 -33.624729 0.000838 379.707855
2 379.707825 0.194073 0.000477 -0.000767 -33.624729 0.000838 379.707855
3 379.707825 0.194073 0.000477 -0.000767 -33.624729 0.000838 379.707855
[Rear_Toe1_03]
1 500.129700 0.165701 0.000119 -179.984131 85.335075 -179.987625 500.129761
2 500.129700 0.165701 0.000119 -179.980637 86.259949 -179.984131 500.129761
3 500.129700 0.165701 0.000119 -179.949768 88.641594 -179.953262 500.129761
[Rear_Toe2_02]
1 340.494507 0.000238 -0.000954 179.998825 -87.351372 179.998825 340.494507
2 340.494507 0.000238 -0.000954 179.998825 -87.286827 179.998825 340.494507
3 340.494507 0.000238 -0.000954 179.998825 -87.221870 179.998825 340.494507
[Rear_Toe2_03]
1 433.103577 0.000000 0.000238 -179.996231 55.410847 -179.999893 433.103546
2 433.103577 0.000000 0.000238 -179.996246 55.006603 -179.999924 433.103546
3 433.103577 0.000000 0.000238 -179.996277 54.602356 -179.999954 433.103546
[Rear_Toe3_02]
1 340.494141 -0.000358 -0.000477 -179.994171 -87.399399 -179.994171 340.494171
2 340.494141 -0.000358 -0.000477 -179.994171 -87.335747 -179.994171 340.494171
3 340.494141 -0.000358 -0.000477 -179.994171 -87.271721 -179.994171 340.494171
[Rear_Toe3_03]
1 433.103577 0.001431 -0.000238 179.992371 55.667976 179.999680 433.103546
2 433.103577 0.001431 -0.000238 179.992416 55.277199 179.999741 433.103546
3 433.103577 0.001431 -0.000238 179.992432 54.886387 179.999771 433.103546
[Back_Bone]
1 1312.175781 -701.934692 0.000954 -2.876992 1.429053 -84.242424 1488.125488
2 1312.175781 -701.934692 0.000954 -3.016175 1.111372 -84.530403 1488.125488
3 1312.175781 -701.934692 0.000954 -3.153744 0.792996 -84.817581 1488.125488
[Head]
1 1406.159424 809.709290 0.001431 -10.035360 7.773756 1.985508 1622.625488
2 1406.159424 809.709290 0.001431 -10.230388 7.762815 1.786851 1622.625488
3 1406.159424 809.709290 0.001431 -10.425367 7.751204 1.588238 1622.625488
[Motor_Bone]
1 1158.364380 -417.834747 0.000477 -2.687934 0.131929 -105.851517 1231.419434
2 1158.364380 -417.834747 0.000477 -5.513655 1.191246 -104.796577 1231.419434
3 1158.364380 -417.834747 0.000477 -3.495545 0.584006 -105.401466 1231.419434
[Ping_Mechanism]
1 1264.058472 -454.176636 -37.858963 0.000103 -0.000053 82.120995 1343.708862
2 1257.510864 -451.749847 -34.621887 0.000103 -0.000053 82.120995 1336.641357
3 1241.238892 -445.328979 -26.113586 0.000103 -0.000053 82.120995 1318.966919
[BN_LookIK]
1 193.241119 1380.371704 -0.002861 0.000000 89.965736 -31.038179 1393.832153
2 193.241119 1380.371704 -0.002861 0.000000 89.965736 -31.038179 1393.832153
3 193.241119 1380.371704 -0.002861 0.000000 89.965736 -31.038179 1393.832153
[bottomMouth]
1 -435.092926 615.759399 -0.000954 -0.000022 0.000016 73.527184 753.966492
2 -435.092926 615.759399 -0.000954 -0.000022 0.000016 73.527184 753.966492
3 -435.092926 615.759399 -0.000954 -0.000022 0.000016 73.527184 753.966492
[L_Mouth01]
1 554.440979 7.658243 838.222046 150.204178 23.759130 109.605339 1005.027161
2 554.440979 7.658243 838.222046 150.204178 23.759130 109.605339 1005.027161
3 554.440979 7.658243 838.222046 150.204178 23.759130 109.605339 1005.027161
[L_mouthFront]
1 551.629089 934.514771 339.150421 0.000081 2.804060 79.119301 1136.941284
2 551.629089 934.514771 339.150421 0.000081 2.804060 79.119301 1136.941284
3 551.629089 934.514771 339.150421 0.000081 2.804060 79.119301 1136.941284
[mouthGun]
1 55.332661 1627.420898 0.000000 0.000023 0.000009 -11.038128 1628.361328
2 55.332661 1627.420898 0.000000 0.000023 0.000009 -11.038128 1628.361328
3 55.332661 1627.420898 0.000000 0.000023 0.000009 -11.038128 1628.361328
[R_Mouth01]
1 554.442383 7.659197 -838.223938 29.795891 -23.759109 109.605331 1005.029541
2 554.442383 7.659197 -838.223938 29.795891 -23.759109 109.605331 1005.029541
3 554.442383 7.659197 -838.223938 29.795891 -23.759109 109.605331 1005.029541
[R_mouthFront]
1 551.629089 934.514282 -339.151367 0.000029 -2.803930 79.119133 1136.941162
2 551.629089 934.514282 -339.151367 0.000029 -2.803930 79.119133 1136.941162
3 551.629089 934.514282 -339.151367 0.000029 -2.803930 79.119133 1136.941162
[TopMouth]
1 461.269867 -56.106091 -0.008583 -0.000059 -0.000268 92.025169 464.669525
2 461.269867 -56.106091 -0.008583 -0.000059 -0.000268 92.025169 464.669525
3 461.269867 -56.106091 -0.008583 -0.000059 -0.000268 92.025169 464.669525
[weapon_bone]
1 -987.239868 1448.372803 0.001431 0.000000 89.965736 -31.038221 1752.833740
2 -987.239868 1448.372803 0.001431 0.000000 89.965736 -31.038221 1752.833740
3 -987.239868 1448.372803 0.001431 0.000000 89.965736 -31.038221 1752.833740
